<?xml version="1.0" standalone="no"?>
<!DOCTYPE svg PUBLIC "-//W3C//DTD SVG 1.1//EN" "http://www.w3.org/Graphics/SVG/1.1/DTD/svg11.dtd" >
<svg xmlns="http://www.w3.org/2000/svg">
<metadata></metadata>
<defs>
<font id="king_of_the_hillregular" horiz-adv-x="972" >
<font-face units-per-em="2048" ascent="1638" descent="-410" />
<missing-glyph horiz-adv-x="500" />
<glyph unicode="&#xd;" horiz-adv-x="508" />
<glyph unicode=" "  horiz-adv-x="500" />
<glyph unicode="&#x09;" horiz-adv-x="500" />
<glyph unicode="&#xa0;" horiz-adv-x="500" />
<glyph unicode="!" horiz-adv-x="460" d="M240 1424q200 -10 200 -24q12 -167 20 -436q-31 -476 -44 -476q-68 -7 -68 -12q-4 -7 -4 -16v-32q0 -21 -252 -40q-32 77 -64 308q-11 0 -28 624q14 13 84 24v48q0 13 128 32h28zM116 1372q16 -657 52 -744q0 -13 28 -132q196 15 196 28q32 345 32 444v8q0 174 -16 400 q-128 16 -176 16q-37 0 -116 -20zM308 320h16q92 0 124 -116v-28q0 -54 -88 -100q-41 -76 -140 -76h-28q-79 0 -92 112v8q0 90 92 124q38 76 116 76zM216 188v-8q0 -76 80 -76q120 10 120 80v4q-19 100 -92 100h-4q-104 0 -104 -100z" />
<glyph unicode="&#x22;" horiz-adv-x="580" d="M468 1452q104 0 104 -28q8 -55 8 -144q0 -36 -8 -172q-11 -14 -80 -32q0 -56 -32 -56q0 -14 -180 -20l-4 8v64h-20l-28 4l-4 -8v-60l-4 -8q-101 4 -160 4h-48q-8 0 -8 8q0 20 -4 128q0 220 24 220q35 4 60 4q8 0 8 8v48q0 15 112 20q35 -4 88 -4h8q6 0 16 -60q5 0 40 4 v56q0 16 112 16zM392 1416v-308h64q35 0 84 16q8 151 8 164q0 124 -16 124q-37 8 -64 8q-64 -4 -76 -4zM124 1400q-8 -172 -8 -204q4 -70 4 -88h144l8 -4q8 94 8 208v24q0 21 -4 68h-104z" />
<glyph unicode="'" horiz-adv-x="308" d="M200 1436q108 -15 108 -32q0 -155 -8 -324q-20 -8 -72 -8h-8v-60q0 -12 -72 -12h-124q-21 0 -24 352q21 8 84 8v60q0 11 116 16zM116 1396q4 -217 12 -292h92l48 4q4 54 4 280q-48 12 -76 12h-32z" />
<glyph unicode="," horiz-adv-x="372" d="M244 290q128 -49 128 -172v-16q0 -144 -152 -248q-90 -89 -156 -104v4q0 5 76 132q8 43 8 56q-148 0 -148 96v20q0 115 96 152q41 80 148 80zM116 126q0 -68 48 -68q17 -7 104 -16v-4q-8 -84 -28 -124q100 74 100 200q0 100 -96 140h-16q-112 0 -112 -128z" />
<glyph unicode="." horiz-adv-x="336" d="M204 328q132 -18 132 -128v-4q0 -66 -96 -120q-50 -76 -128 -76h-16q-78 0 -96 124v20q0 74 72 104q13 0 44 52q44 28 88 28zM116 220v-28q0 -72 72 -88h8q108 24 108 104q-21 72 -52 72q0 9 -36 12h-28q-72 -10 -72 -72z" />
<glyph unicode="0" horiz-adv-x="1056" d="M652 1432h4q287 0 372 -400q20 -94 28 -284q0 -426 -244 -588q-148 -160 -364 -160h-16q-295 0 -408 440q-24 98 -24 200v32q0 249 184 508q207 209 272 216q68 36 196 36zM116 736v-20q0 -282 160 -496q106 -116 248 -116q331 0 464 356q32 99 32 264v40 q-10 501 -244 612q-62 24 -128 24q-345 0 -488 -424q-44 -121 -44 -240zM596 972h20q78 0 120 -116q4 -22 4 -44q0 -181 -120 -316q-48 -28 -84 -28h-8q-66 0 -76 128v16q0 183 76 324q35 36 68 36zM528 864q-44 -147 -44 -256q7 -108 52 -108h16q32 23 68 176q4 47 4 68 q-16 120 -96 120z" />
<glyph unicode="1" horiz-adv-x="896" d="M492 1448h68q110 0 308 -4q0 -4 4 -4q4 -413 24 -1088v-264q0 -12 -80 -12v-60q0 -16 -248 -16h-64q-46 0 -140 4l-4 8q0 122 -16 736l-4 28q-154 -84 -184 -96q-134 184 -156 316q358 337 492 452zM500 1416l-380 -364q44 -145 128 -256h4q132 68 196 104l8 -4 q12 -287 20 -788q34 0 184 -4q59 0 204 8v120q-24 996 -24 1116v64h-72q-93 0 -268 4z" />
<glyph unicode="2" horiz-adv-x="1056" d="M500 1432q335 0 448 -176q108 -141 108 -332q0 -172 -236 -348q-11 -15 -136 -116h4l344 -12q8 -20 8 -92q0 -248 -16 -248q-60 -8 -72 -8v-56q0 -39 -936 -44l-4 8l-12 400q84 43 84 60q0 24 132 84q125 76 300 144q100 48 100 84l4 16q0 114 -148 168q-6 5 -40 8 l-412 -40v4q-8 46 -8 88q0 79 -4 300q84 14 84 20v48q0 17 320 40h88zM124 1368q4 -145 4 -208v-72l4 -48q316 36 396 36q108 0 192 -136q12 -31 16 -72q0 -136 -392 -280q-211 -119 -228 -124q4 -69 12 -360q808 8 872 36q8 168 8 208q-4 47 -4 68q-444 13 -444 20v24 q0 6 108 48q122 66 300 256q56 74 56 164q0 287 -252 432q-123 40 -284 40q-173 0 -364 -32z" />
<glyph unicode="3" horiz-adv-x="1040" d="M456 1432h48q273 0 364 -120q172 -167 172 -352v-20q0 -138 -156 -244l-12 -16q140 -111 140 -232v-40q0 -182 -168 -304q-92 -104 -236 -104q-604 7 -604 24q0 130 -4 360h4q33 0 80 -8v76l4 8q217 -32 372 -32q34 4 52 4q-23 124 -124 124q-80 5 -80 16q-4 159 -4 220 l84 12v56q0 8 116 20q36 10 36 32v12q0 120 -188 120h-48q-118 0 -288 -36l-4 8q-8 151 -12 320q7 4 84 12v56q0 20 372 28zM116 1380l4 -48v-24q0 -114 8 -188q146 28 224 28h44q17 0 32 4q228 0 228 -148v-20q0 -105 -188 -144q-41 -4 -48 -4v-4q1 -164 8 -164 q160 -22 160 -64q40 -43 40 -116q0 -92 -176 -92q-127 0 -336 24q4 -145 4 -220v-80q316 -12 576 -16q187 0 268 204q16 76 16 120q0 159 -196 268v4q123 33 176 108q48 63 48 152q0 195 -212 372q-77 68 -316 68q-164 0 -364 -20z" />
<glyph unicode="4" horiz-adv-x="1052" d="M580 1444h44q80 0 240 -4q0 -4 4 -4q8 -181 8 -380v-296h152q15 0 24 -180v-12q0 -156 -16 -156h-60q-12 0 -12 -44v-16q0 -6 -12 -12h-4q-28 0 -88 -4l4 -28v-212q0 -10 -84 -20l4 -8v-44q-23 -20 -148 -24q-192 0 -192 16q4 228 4 316h-4q-59 -4 -80 -4 q-324 -4 -360 -4q0 4 -4 4q8 224 8 268q176 247 248 400q208 340 240 376q48 0 48 28q31 44 36 44zM592 1412q-172 -268 -360 -600l-108 -160q-4 -187 -8 -224q302 8 444 8l4 -8v-96q0 -75 -4 -220q106 -8 152 -8q27 0 120 12q-4 145 -4 220v96q1 8 8 8q105 4 176 4 q8 66 8 132q-8 152 -20 152h-148q-8 0 -8 8v256q0 206 -8 416h-56q-61 0 -188 4zM604 992h4v-64q0 -61 -4 -200l-8 -4h-212q-8 0 -8 8q6 2 228 260zM448 760q19 0 40 -4l4 8v44q-6 0 -44 -48z" />
<glyph unicode="5" horiz-adv-x="1036" d="M108 1444h172q215 0 700 -4q0 -4 4 -4q8 -286 8 -368l-8 -4h-76q4 -55 4 -68l-8 -4h-136q-98 0 -260 4q-44 -6 -44 -12q0 -28 4 -116h4q148 8 240 8h20q179 0 228 -84q76 -92 76 -220v-4q0 -243 -220 -408q-174 -160 -352 -160q-448 15 -448 32l-16 360l8 4h76v64 q1 8 8 8h160q181 0 288 12q-32 48 -112 48q-271 -16 -332 -16q-44 4 -76 4l-4 8q-16 234 -16 352l16 492l8 4h72l4 28v36q1 8 8 8zM132 1412l-16 -468q0 -130 16 -324h80q124 0 292 16q156 -16 156 -100v-12q0 -88 -280 -88h-264q4 -21 4 -24q0 -50 12 -284q273 -20 420 -24 q118 0 280 112q172 146 172 352q0 178 -140 260q-48 16 -148 16q-67 0 -276 -12q0 4 -4 4q-8 179 -8 236q131 28 180 28h84q93 0 268 -4q-4 68 -8 312h-192q-200 0 -628 4z" />
<glyph unicode="6" horiz-adv-x="1064" d="M596 1472q213 0 300 -152q-304 -293 -304 -304q-82 -106 -148 -220h4q154 80 296 80h12q182 0 292 -212q16 -46 16 -80v-44q0 -222 -224 -392q-152 -148 -420 -148h-32q-289 0 -368 320q-16 65 -20 180q0 357 180 552q62 88 328 348q4 0 84 72h4zM600 1440 q-443 -435 -448 -592q-24 -66 -36 -268q0 -476 376 -476q442 0 532 372q8 51 8 96v4q0 142 -176 244q-62 24 -112 24q-154 0 -336 -108h-4q-20 12 -20 24q132 242 276 376q185 180 192 180v8q-77 116 -252 116zM704 612q116 -12 116 -100q0 -82 -76 -116q-23 -10 -76 -16 q-123 0 -140 88v4q0 91 132 140h44zM560 472q0 -47 96 -56h44v36q0 56 -104 56q-36 0 -36 -36z" />
<glyph unicode="7" horiz-adv-x="1024" d="M84 1448h384q483 -12 548 -12q0 -4 4 -4q4 -86 4 -128v-220q0 -35 -440 -780q-113 -228 -124 -232h-36q-40 -72 -48 -72q-209 0 -372 36v8q190 415 416 756q85 129 120 212h-8q-70 0 -508 -4l-4 8q-8 227 -20 356l8 4h80q-4 47 -4 68v4zM120 1416l16 -304q75 0 380 8 q83 -4 152 -4q0 -4 4 -4q-48 -120 -248 -432q-97 -135 -292 -548q182 -28 316 -28q0 37 376 676l168 304q0 28 -4 32q4 67 4 104v4q0 58 -4 180h-12q-60 0 -588 12h-268z" />
<glyph unicode="8" horiz-adv-x="1180" d="M592 1432h20q337 0 488 -272q28 -69 28 -116v-24q0 -125 -140 -292q192 -97 192 -304v-16q0 -138 -152 -248q-157 -160 -448 -160h-64q-306 0 -396 232q-12 34 -16 92q0 127 140 284q-244 92 -244 320q0 180 220 344q84 96 276 148q46 12 96 12zM116 988q0 -200 244 -284 q30 0 32 -12q-172 -157 -172 -296q0 -207 252 -276q71 -16 156 -16h12q371 0 488 216q20 57 20 104q0 204 -208 288h-4v8q160 172 160 316q0 177 -224 304q-120 60 -276 60q-153 0 -320 -120q-160 -129 -160 -292zM636 1160h40q88 0 104 -120v-36q0 -90 -168 -124h-24 q-108 0 -108 96q0 107 120 176q26 8 36 8zM516 988v-28q0 -48 80 -48q11 0 68 12v36q0 96 -92 96h-8q-48 -4 -48 -68zM736 548q71 0 92 -112q-30 -132 -192 -132q-92 10 -92 60v28q0 79 120 144q54 12 72 12zM576 384v-8q0 -40 68 -40q61 0 68 24q-15 80 -52 80h-16 q-64 0 -64 -40q-4 0 -4 -16z" />
<glyph unicode="9" horiz-adv-x="1112" d="M684 1440h8q308 0 404 -300q16 -61 16 -116v-36q0 -228 -260 -908l-8 -4h-48q-22 -72 -32 -72q-124 -4 -172 -4q-76 0 -244 44q0 4 -4 4q120 283 240 556h-4q-124 -36 -212 -36q-272 0 -356 276q-12 58 -12 92v32q0 167 180 292q105 99 188 120q148 60 316 60zM116 1048 v-36q0 -177 156 -296q82 -40 168 -40h24q115 0 264 60v-4q-152 -343 -256 -592q153 -36 204 -36q83 4 152 4q252 666 252 896q0 320 -304 396q-60 8 -88 8q-444 -23 -556 -276q-16 -49 -16 -84zM528 1136h20q113 0 140 -108v-4q-31 -120 -172 -120q-92 0 -92 104v8 q16 120 104 120zM460 1032l-4 -8v-8q0 -80 68 -80q48 0 48 20q0 57 -112 76z" />
<glyph unicode="?" horiz-adv-x="976" d="M504 1452q303 0 376 -136q96 -133 96 -296v-60q0 -154 -140 -236q-92 -111 -316 -172q-108 -16 -108 -24v-44q0 -72 -12 -72h-68l-4 -28v-32q0 -12 -32 -12v-4q92 -35 92 -116v-4q0 -87 -100 -136q-50 -80 -136 -80h-24q-116 13 -116 96v20q27 156 104 156q32 58 64 68h4 v4q-164 9 -164 48q-16 296 -16 380q0 51 8 76l48 -4h28v68l4 8l48 -4h72q182 0 336 52v4q-50 92 -228 92h-56l-260 -16l-4 8v280q0 9 84 20v52q0 16 280 40q68 4 140 4zM116 1156h4l248 16q245 0 296 -120v-28q0 -99 -384 -140q-3 0 -96 -4q-40 4 -60 4l-4 -20v-12 q0 -27 12 -356q0 -36 40 -36q73 -12 204 -16l4 40v64q0 55 12 92l20 -4h20q263 0 468 184q44 44 44 160v12q0 259 -168 380q-103 48 -280 48q-172 0 -380 -36v-228zM128 184v-8q0 -72 92 -72h4q110 0 132 112v4q-14 96 -136 96q-60 0 -88 -100q-4 -15 -4 -32z" />
<glyph unicode="A" horiz-adv-x="1200" d="M916 1456q60 -281 144 -612q40 -187 140 -720q-21 -8 -92 -12v-4q8 -53 8 -56q-101 -20 -204 -20h-200q-11 0 -32 256q-16 148 -24 148h-56q-36 -326 -44 -364h-72q0 -72 -16 -72h-88q-165 0 -380 24q104 452 292 1104q64 235 72 248h60q8 36 20 72q362 8 472 8z M468 1416l-264 -960q-16 -58 -80 -332q134 -16 404 -16q44 390 52 432h188q13 0 48 -396q4 0 4 -8h144q196 5 196 20q-124 691 -224 1048q-36 165 -44 220q-101 -4 -424 -8zM672 1064q28 -47 68 -180q16 -61 16 -76l-8 -4h-160l-8 4q55 256 92 256z" />
<glyph unicode="B" horiz-adv-x="984" d="M356 1456h244q162 0 220 -64q152 -128 152 -384v-28q0 -181 -132 -256l-32 -40v-4q111 -60 168 -224q8 -32 8 -68v-8q0 -192 -140 -272q-89 -108 -260 -108q-486 0 -572 36q-4 138 -4 144q0 366 -8 1196l8 4h76v64l4 8q175 4 268 4zM116 1420v-4q8 -673 8 -1128 q4 -122 4 -156q0 -16 532 -28q187 0 264 132q28 86 28 152q0 133 -140 252q-42 32 -152 48q0 18 -4 24l160 40q124 50 124 252q0 304 -212 404q-15 16 -192 16q-40 0 -420 -4zM564 1164q76 -25 76 -100v-16q0 -98 -152 -136q-35 -4 -60 -4h-12q-8 0 -8 8v228q0 13 156 20z M440 1056v-116q84 0 84 36v16q-11 68 -56 68zM508 472q105 0 136 -56q8 -15 8 -32v-12q0 -76 -120 -104q-37 -12 -92 -12h-32q-8 0 -8 8v28q0 62 4 168q38 12 104 12zM436 364v-76q23 0 100 12v12q-11 52 -88 52h-12z" />
<glyph unicode="C" horiz-adv-x="1108" d="M692 1488h40q216 0 376 -196v-4q-31 -201 -164 -372l-20 12l-64 -84q-115 76 -200 76h-16q-111 0 -132 -112q-11 -13 -12 -76q0 -170 88 -224q60 -28 124 -28h8q92 0 196 56q72 -41 128 -228q28 -101 28 -180q-53 -16 -84 -20v-4l4 -48q-212 -56 -400 -56 q-379 0 -508 328q-84 203 -84 340v36q0 291 196 528q230 214 328 224q86 32 168 32zM116 772v-20q0 -199 136 -444q128 -200 392 -200h68q133 0 328 44q-5 118 -88 300l-36 44q-124 -52 -204 -52q-176 0 -228 156q-16 48 -16 108v36q0 188 200 272q32 8 64 12q88 0 204 -68 q114 157 136 328q-150 168 -364 168q-268 0 -452 -232q-140 -215 -140 -452z" />
<glyph unicode="D" horiz-adv-x="1120" d="M388 1436h40q376 0 472 -100q132 -93 196 -336q16 -46 24 -184q0 -368 -372 -652q-196 -164 -520 -164h-88q-132 0 -132 16q-8 341 -8 580q8 254 8 312v20q0 233 -8 416q6 4 84 12v56q0 19 304 24zM116 1388q0 -18 4 -24q4 -216 4 -324v-56q0 -64 -8 -324q0 -213 8 -548 q44 -8 136 -8h12q378 0 564 180q248 230 248 520v28q0 289 -204 480q-97 92 -464 92h-4q-153 0 -296 -16zM564 1076q113 0 160 -136q12 -57 12 -104q0 -169 -76 -284q-90 -80 -220 -80l-8 4q-4 296 -4 460v104q0 24 136 36zM464 972q0 -4 -4 -4q4 -175 4 -260v-200 q120 9 120 52q36 113 36 212q0 200 -156 200z" />
<glyph unicode="E" horiz-adv-x="1012" d="M92 1484q852 -33 852 -40q24 -331 28 -420q-8 -4 -12 -4q-16 0 -72 -4v-16l4 -48q-4 0 -4 -4q-297 -12 -368 -12v-12q0 -20 4 -60q289 -20 324 -28v-4q-7 -184 -20 -184h-40q-32 0 -32 -24v-36l-8 -12q-86 -4 -128 -4h-68q12 -108 20 -108q396 -36 440 -44v-4 q-20 -344 -32 -344h-68l-4 -28v-32q0 -6 -12 -12h-88q-150 0 -804 48l-4 8v1348q1 8 8 8h56l20 -4v68q1 8 8 8zM116 1452v-1300q630 -48 828 -48h12q16 158 16 288q-389 36 -436 44q-24 197 -32 232q4 0 4 4l296 8q4 14 4 128q-274 20 -316 28q-12 164 -12 196q4 0 4 4 l456 16l-4 8q0 39 -24 356q-721 32 -776 32z" />
<glyph unicode="F" horiz-adv-x="1048" d="M1044 1424l4 -8q0 -53 -12 -364l-8 -4h-72v-64q0 -8 -8 -8h-316l-40 4l-4 -8v-92q0 -21 -4 -68q53 0 364 -8q0 -4 4 -4q4 -145 4 -220v-44q0 -10 -84 -20l4 -28v-24q0 -11 -284 -52q-44 -7 -44 -24q-20 -308 -32 -308h-68l-4 -40v-20l-8 -12q-289 -8 -432 -8q-4 8 -4 12 q0 337 32 1220v76q27 8 84 8v60q0 14 360 28q78 12 568 20zM148 1352v-4l-32 -1124v-120h4q85 4 372 8q28 341 36 380q371 60 396 68q-4 101 -4 148v64q-53 0 -364 8l-4 8q0 64 8 292l8 4h128q110 0 308 -4q8 261 12 312q-499 -12 -868 -40z" />
<glyph unicode="G" horiz-adv-x="1232" d="M700 1508h24q229 0 392 -200q-68 -238 -184 -364q-13 8 -24 8q-2 -20 -60 -80q-117 68 -204 68q-104 0 -116 -72q-28 -41 -28 -116v-4q0 -158 124 -264q33 -24 72 -24q2 0 16 4v8q-112 27 -112 52q-4 101 -4 160q3 72 16 72h60q7 0 16 68l8 4h520q16 0 16 -176v-128 q0 -8 -8 -8h-8q-21 0 -68 4v-68q0 -8 -12 -8q-18 0 -88 4q-22 -136 -84 -208q-210 -198 -296 -220q-67 -20 -116 -20h-16q-220 0 -404 260q-132 238 -132 440q0 310 196 552q207 195 308 220q103 36 196 36zM116 764q0 -230 176 -480q156 -180 340 -180q162 0 328 184 q60 107 60 248v16q1 8 8 8q53 -4 168 -4q4 22 4 36v24q0 112 -8 176q-274 4 -428 4h-48l-4 -28v-16q0 -47 4 -148q112 -36 128 -44q-72 -132 -148 -132h-4q-156 0 -224 276v68q0 116 108 220q62 52 152 52q79 0 200 -56q91 125 136 264q12 44 12 48q-138 176 -368 176 q-285 0 -468 -256q-124 -221 -124 -456z" />
<glyph unicode="H" horiz-adv-x="1216" d="M1012 1468q204 -6 204 -16q-8 -192 -12 -492q4 -437 4 -852l-8 -4h-72v-64q0 -8 -8 -8q-32 0 -424 4l-4 8v4q0 241 -16 392h-72q8 -253 8 -364l-8 -4h-76q4 -55 4 -68l-8 -4q-428 8 -464 8q0 4 -4 4q-4 127 -4 180q0 715 -44 1100q-4 59 -8 80l8 4h80v20l-4 48q4 0 4 4 q139 4 200 4h272q19 0 32 -480v-52h80v4q-12 280 -12 356v88q0 6 12 12q21 0 68 4v56q0 18 272 28zM776 1420v-56q0 -63 12 -376v-92q0 -8 -8 -8q-75 0 -220 -4l-4 8v128q0 187 -20 396l-40 4h-48q-120 0 -328 -4q48 -442 48 -1088v-40q0 -43 4 -172q21 -4 24 -4 q174 0 384 -8l-12 440l8 4h204q24 0 28 -408h368q-4 667 -4 828q0 136 8 460q-86 4 -128 4h-52q-94 0 -224 -12z" />
<glyph unicode="I" horiz-adv-x="556" d="M96 1440h436q8 -1 8 -8v-80q0 -356 16 -932q0 -57 -16 -340l-12 -8h-68q0 -72 -12 -72h-416q-8 0 -8 8q0 669 -24 1080q0 38 4 276l8 4h76v64q1 8 8 8zM120 1408q-4 -218 -4 -256q24 -377 24 -1048h40q120 0 328 4q16 279 16 320q-16 502 -20 980h-384z" />
<glyph unicode="J" horiz-adv-x="1036" d="M840 1508q160 -7 160 -28q36 -507 36 -800q0 -292 -124 -420q-94 -102 -208 -184q-131 -76 -252 -76h-48q-288 0 -380 304q-24 115 -24 212q4 70 4 84q79 11 80 16q0 60 16 60q54 8 116 8h12q100 0 100 -20q87 -188 180 -188h12q32 30 40 252q-16 292 -24 672 q63 16 84 16v52q38 24 220 40zM652 1448q8 -321 24 -652q0 -356 -156 -356q-128 0 -220 208q-8 0 -88 4q-43 0 -92 -8q-4 -41 -4 -48q0 -492 392 -492h12q237 0 396 216q84 122 84 288v132q0 283 -32 720q-50 12 -136 16q-21 0 -180 -28z" />
<glyph unicode="K" horiz-adv-x="1248" d="M1232 1488l4 -8q0 -441 -212 -780v-4q158 -239 224 -588l-12 -8q-26 0 -80 -4q8 -33 8 -64l-8 -4l-404 -28q-56 256 -120 356q-41 67 -44 76q-11 0 -28 -260q-13 -96 -24 -96h-64q-5 -72 -16 -72h-24q-428 9 -428 48q0 102 4 160q-8 310 -8 576l12 580l8 4h4q21 0 68 4 q0 68 12 68l460 28q0 -4 4 -4l20 -592q65 63 96 212q24 199 24 272v8l-4 20q8 4 12 4q64 4 76 4v44l-4 20q0 6 444 28zM1192 1452q-47 0 -368 -20v-4q0 -184 -52 -380q-70 -160 -208 -228h-4q0 4 -4 4l-20 616l-8 -4q-31 0 -400 -24q-12 -510 -12 -568q0 -161 8 -580 q-4 -80 -4 -120q127 -36 396 -36l40 372q115 64 124 64h4q122 -179 180 -436l348 24q-36 169 -84 288q-48 117 -144 288v4q74 76 160 332q56 210 56 412z" />
<glyph unicode="L" horiz-adv-x="856" d="M92 1392h448l8 -4q4 -312 4 -488v-476h4q164 -8 192 -8h100q8 -1 8 -8q-4 -202 -4 -316v-12q0 -8 -8 -8h-72v-64q0 -8 -12 -8q-168 0 -724 16q-4 8 -4 12q0 363 -32 1288l8 4h76v64q1 8 8 8zM116 1356q0 -4 4 -12q0 -72 24 -912q4 0 4 -312h24l648 -16v280l-8 -4h-28 q-21 0 -260 12q-4 8 -4 12q0 289 -4 956h-40q-130 0 -360 -4z" />
<glyph unicode="M" horiz-adv-x="1372" d="M1140 1464q204 0 204 -16q0 -402 28 -1072v-72q-4 -150 -4 -184q-28 -8 -80 -12v-56q0 -17 -272 -28q-192 0 -192 16v284q-60 -74 -92 -100q0 8 -8 8q-46 -59 -72 -80l-56 72v-144q0 -8 -8 -8h-68q-8 -1 -8 -8q4 -34 4 -56q0 -8 -8 -8h-152q-320 9 -320 24 q0 678 -36 1272v72q32 8 84 8v60q0 12 236 20l232 -8q92 -317 152 -448h4q68 141 148 380q68 0 68 32q8 44 32 44q73 8 184 8zM728 872h-4q-24 26 -128 320l-68 224q-101 4 -148 4h-40q-108 0 -224 -8q32 -652 32 -928q4 -119 4 -364q221 -16 360 -16h52q-8 264 -8 468 q15 8 32 8q107 -269 152 -304q115 121 156 284q11 28 16 28h16q6 0 12 -12v-440q114 -8 164 -8q111 4 232 20v288q-24 593 -24 872v116q-124 8 -180 8q-172 -2 -172 -16q-78 -252 -232 -544z" />
<glyph unicode="N" horiz-adv-x="1096" d="M116 1436h224q10 -3 240 -344v248q1 8 8 8h76v64q1 8 8 8q258 4 416 4q8 -1 8 -8q-52 -800 -96 -1328l-12 -8h-68q0 -72 -12 -72q-191 4 -224 4q-156 228 -212 296v-228q0 -8 -8 -8h-72v-64q0 -8 -8 -8h-156q-228 0 -228 20q32 450 32 720v180q0 163 -4 440l8 4h76 q-4 47 -4 68zM144 1400q4 -204 4 -320v-292q0 -213 -28 -664q-4 -8 -4 -12q144 -8 324 -8v472q1 8 8 8q178 -238 336 -464q27 -4 44 -4h60q26 0 80 -4q92 1174 92 1276h-364v-520h-4l-364 532h-184z" />
<glyph unicode="O" horiz-adv-x="1432" d="M780 1460h20q433 0 584 -344q48 -124 48 -268v-32q0 -428 -308 -652q-182 -164 -416 -164h-52q-281 0 -516 240q-140 169 -140 368v4q0 476 288 672q179 176 492 176zM116 676q0 -327 372 -516q142 -56 272 -56h4q403 0 576 380q60 168 60 356q0 454 -408 564 q-98 24 -200 24q-511 0 -640 -444q-36 -132 -36 -308zM788 1028h8q235 0 292 -232q4 -34 4 -56v-16q0 -223 -244 -308q-34 -4 -56 -4q-140 0 -252 212q-16 58 -16 88v8q0 180 164 284q51 24 100 24zM556 716q0 -141 172 -256q49 -16 72 -16q124 0 160 116q16 45 16 96 q0 179 -144 244q-63 24 -124 24q-98 0 -120 -80q-32 -61 -32 -128z" />
<glyph unicode="P" d="M708 1452q173 0 244 -200q16 -51 20 -136q0 -247 -196 -384q-129 -119 -304 -180v-4l-12 -172q4 -129 4 -244v-40q0 -11 -80 -16v-56q-24 -20 -156 -20h-80q-104 0 -104 12q-28 257 -40 468q5 368 8 428q-4 42 -12 444q27 8 84 8v60q0 20 608 32h16zM116 1396 q0 -11 12 -404l-8 -432q12 -234 40 -452q86 -4 124 -4q148 3 148 16q-4 173 -4 248q13 264 28 264q217 46 396 212q84 111 84 256v40q0 193 -152 264q-26 12 -84 16q-206 0 -584 -24zM532 1148h32q100 0 100 -72q0 -87 -100 -124q-49 -20 -116 -20h-4q-13 0 -16 204 q34 12 104 12zM464 1044v-4q4 -54 4 -76q80 7 80 32v4q0 44 -68 44h-16z" />
<glyph unicode="Q" horiz-adv-x="1448" d="M836 1464q281 0 504 -328q92 -167 92 -324v-16q0 -233 -152 -460l168 -248q-39 -71 -168 -172q-69 -72 -212 -116q-43 83 -132 240q-156 -52 -308 -52h-24q-262 0 -468 260q-136 202 -136 488q0 329 248 508q114 118 304 172q189 48 284 48zM116 800q0 -504 416 -680 q101 -28 172 -28q149 0 332 60l132 -240q171 66 240 176l-168 248q160 229 160 472q0 272 -248 496q-154 124 -312 124q-284 0 -524 -164q-200 -165 -200 -464zM816 1024q195 0 252 -184q16 -48 16 -108v-52q0 -32 -8 -72h-4l-144 140q-112 -52 -116 -52q88 -213 100 -252 q-50 -28 -120 -28h-12q-178 0 -252 220q-16 54 -16 108v8q0 164 200 252q27 12 104 20zM544 740q0 -157 136 -268q59 -20 80 -20v4q-68 172 -68 180v8q2 0 88 36v4l-8 28q147 72 168 72q0 -4 4 -4v8q-59 112 -116 112q-35 16 -92 16h-12q-180 0 -180 -176z" />
<glyph unicode="R" d="M560 1464h20q246 0 308 -104q84 -104 84 -288q0 -198 -176 -312q-23 -29 -80 -72q157 -105 200 -216q52 -115 52 -204q0 -35 -12 -184h-4q-31 0 -72 8q-4 -78 -12 -84q-197 21 -308 48v4q0 272 -72 320l-12 8l-4 -8q0 -34 -4 -108q8 -153 8 -168q-31 -12 -84 -24v-4 l4 -40q-80 -36 -160 -36q-192 16 -192 28q-8 335 -8 628v112q0 334 -36 596q34 7 88 12l-4 64h4q273 24 472 24zM120 1408q32 -243 32 -552v-108q0 -314 8 -624q100 -16 168 -16q50 0 116 20q0 4 -4 12q-4 102 -4 136q0 108 20 292q208 -96 208 -264q12 -130 16 -152 q63 -16 244 -32q8 65 12 152q0 105 -88 256q-119 126 -224 180v8q219 77 292 220q24 67 24 144q0 245 -172 332q-87 20 -208 20q-182 0 -440 -24zM572 1168h4q100 0 100 -84q0 -99 -120 -140q-50 -16 -108 -16q-7 0 -16 216q72 24 140 24zM472 1064q0 -4 -4 -4l8 -96 q80 0 80 32q4 6 4 24q0 44 -88 44z" />
<glyph unicode="S" horiz-adv-x="1168" d="M652 1540h24q210 0 416 -152l8 -12v-4q0 -185 -148 -336l-12 8q-3 0 -44 -56q0 -5 76 -28q196 -120 196 -340v-36q0 -258 -224 -416q-178 -168 -460 -168q-250 0 -484 144v4q0 120 60 268q32 55 68 84h4l12 -8h4q7 28 64 80q108 -95 308 -140q68 -8 92 -8h24q92 0 92 36 l4 24q-33 176 -132 176q-377 0 -428 88q-120 110 -120 236v48q0 160 220 328q195 180 380 180zM168 1100v-40q0 -136 144 -244q65 -52 388 -52q66 0 124 -112q24 -52 24 -96q0 -113 -132 -156q-40 -8 -92 -12q-198 0 -412 140q-65 -74 -84 -208l-12 -88q218 -124 444 -124 h16q364 0 520 280q40 104 40 208q0 256 -212 348l-388 48q-112 30 -112 88v16q0 65 108 112q38 8 60 8h20q157 0 336 -136q120 142 120 284q-195 144 -404 144q-236 0 -452 -264q-44 -83 -44 -144zM456 1084q0 -69 368 -92q-145 120 -308 120q-60 0 -60 -28z" />
<glyph unicode="T" horiz-adv-x="1220" d="M92 1484q94 0 1112 -20q0 -4 4 -4q12 -357 12 -428q-84 -10 -84 -12q4 -50 4 -60q-22 -8 -276 -16l20 -868l-8 -4h-8q-21 0 -68 4v-4q0 -13 4 -68l-8 -4q-340 15 -340 28l-76 908q-16 7 -376 32l-4 8v428q1 8 8 8h76v64q1 8 8 8zM116 1452v-380q338 -24 376 -32 q72 -839 80 -916q223 -16 280 -16v4q-4 40 -24 928q32 8 360 20q-4 57 -12 372q-942 16 -1060 20z" />
<glyph unicode="U" horiz-adv-x="1184" d="M784 1436h196q188 -11 188 -28q12 -135 16 -304q0 -781 -168 -936q-39 -26 -104 -88q-111 -80 -300 -80q-267 0 -460 148q-152 168 -152 612q0 171 12 572q84 13 84 20v48q0 16 152 20h28q90 0 180 -52v-4q-12 -121 -12 -232v-112q0 -548 212 -548h4q54 0 68 292 q-8 200 -36 596l8 4h80l-4 48v16q1 8 8 8zM812 1404v-4q32 -515 32 -564q0 -322 -136 -388q-28 -8 -48 -8h-12q-240 0 -240 644q4 154 12 268q-85 36 -160 36q-132 -3 -132 -16q-12 -360 -12 -560q0 -464 180 -596q184 -112 400 -112q303 0 368 208q84 203 84 836 q-5 240 -16 240q-105 16 -176 16h-144z" />
<glyph unicode="V" horiz-adv-x="1244" d="M848 1468h52q97 0 344 -52v-4q-124 -350 -260 -804q-129 -340 -208 -520q-58 0 -68 -40q0 -44 -96 -44q0 -4 -52 -4h-4q-132 0 -212 28q-249 489 -260 688q-36 203 -84 660q30 7 88 12q-4 40 -4 60q78 16 168 16q108 0 108 -32q28 -64 104 -408q40 -127 108 -280 q8 0 72 252q100 350 120 400h60q14 72 24 72zM868 1436q-124 -420 -236 -860h-8q-176 335 -176 400q-24 61 -104 412q-14 36 -28 36q-46 8 -72 8q-124 -6 -124 -16q68 -671 136 -864q92 -223 200 -428q120 -20 184 -20q120 0 120 28q200 472 304 856l136 404h-4 q-211 44 -328 44z" />
<glyph unicode="W" horiz-adv-x="1576" d="M1152 1436h56q51 0 368 -32v-4q0 -111 -208 -1304q-76 0 -76 -40t-52 -40q-69 -12 -128 -12h-28q-196 0 -196 28q-54 220 -124 352q-8 0 -8 20q-12 -11 -80 -248q-26 -84 -32 -84h-56q-18 -72 -28 -72q-97 0 -336 8q-36 206 -152 764q-72 485 -72 580l8 4h80q-4 47 -4 68 q4 0 4 4q127 4 188 4h96q144 0 144 -48q16 -221 48 -500h8q44 81 60 92h36q24 53 48 72q196 -2 196 -20q79 -124 84 -124h4v4q32 196 64 456h72q7 72 16 72zM1176 1404q-28 -221 -80 -572l-12 -100h-4l-200 276q-115 4 -152 8q-123 -192 -168 -296h-8v4q-68 544 -68 656 q-63 20 -120 20q-34 0 -244 -4v-4q0 -158 104 -736q108 -476 108 -544h4q215 -4 288 -8q128 434 172 520l8 4h4l132 -300q24 -70 64 -208q92 -12 180 -12q160 8 160 24q192 1138 192 1240q-255 32 -360 32z" />
<glyph unicode="X" horiz-adv-x="1432" d="M320 1472q200 0 200 -28l184 -316q18 49 132 272h48q29 72 40 72q317 -12 360 -40q13 0 76 -20v-12q-268 -413 -352 -608q205 -267 316 -480q108 -180 108 -188q-9 -4 -112 -16q12 -24 28 -48v-12q-135 -16 -436 -28q-103 163 -188 268q-8 28 -16 28q-84 -244 -92 -244 h-4l-48 4q-19 -76 -36 -76q-296 21 -444 36v4q176 415 320 640v4q-217 292 -404 700v4q108 4 108 12l-28 56q101 16 240 16zM136 1432l-4 -8q186 -379 372 -640q3 0 24 -32q-164 -250 -312 -616l8 -4q322 -20 376 -20q131 380 168 396h4q53 -131 144 -232l96 -152l368 24v4 q-204 364 -352 560q-56 63 -56 76q81 191 228 424q101 149 112 180h-4q-107 40 -300 40q0 3 -68 8q-144 -301 -196 -368q-24 -32 -28 -32h-8q0 21 -212 376q0 24 -176 24q-15 0 -184 -8z" />
<glyph unicode="Y" horiz-adv-x="1352" d="M312 1472h124q84 0 84 -28q120 -241 180 -320h4q56 149 120 276h44q39 72 44 72h52q213 0 388 -64q-175 -259 -316 -516q-104 -150 -104 -180q-24 -169 -24 -636q-4 0 -4 -4q-40 4 -60 4h-16v-68l-4 -8q-47 4 -68 4h-292q-8 0 -8 8q-8 400 -8 552v56q0 15 -96 136 q-161 208 -352 604q8 8 104 28q-20 36 -20 48q140 36 228 36zM128 1408q181 -343 264 -468q171 -222 172 -232v-72q0 -158 8 -528h304v112q3 531 44 556q121 188 288 476q5 5 92 136v4q-160 48 -372 48q-56 -119 -132 -300q-49 -77 -72 -100q-121 147 -176 284 q-52 88 -60 112q-66 4 -100 4h-56q-92 0 -204 -28v-4z" />
<glyph unicode="Z" horiz-adv-x="1176" d="M132 1384q906 -4 1032 -8l4 -8v-112q8 -68 8 -76v-20q0 -63 -64 -128q-60 -113 -264 -304q-206 -183 -280 -300q233 -24 320 -24h220q16 0 16 -180v-144q0 -8 -8 -8h-72v-64q0 -8 -8 -8q-595 4 -812 4q-40 0 -212 4l-4 8q-8 164 -8 176q0 157 36 176q124 177 400 440 q5 0 152 152q-145 4 -208 4h-28q-87 0 -300 -12q-24 128 -24 184q7 176 20 176h64q7 0 16 72h4zM156 1352q-8 -51 -12 -148q4 -72 20 -148l8 4q154 8 224 8h140q63 0 208 -4v-4q-444 -440 -444 -448q-172 -206 -172 -220q-8 -58 -12 -132q0 -20 8 -148q336 -4 540 -4h140 q103 0 288 -4v84q0 118 -8 184h-212q-85 0 -360 28v12q82 122 280 316q133 102 256 264q92 128 92 148q4 21 4 40q-8 46 -8 64v100z" />
<glyph unicode="a" horiz-adv-x="1200" d="M916 1456q60 -281 144 -612q40 -187 140 -720q-21 -8 -92 -12v-4q8 -53 8 -56q-101 -20 -204 -20h-200q-11 0 -32 256q-16 148 -24 148h-56q-36 -326 -44 -364h-72q0 -72 -16 -72h-88q-165 0 -380 24q104 452 292 1104q64 235 72 248h60q8 36 20 72q362 8 472 8z M468 1416l-264 -960q-16 -58 -80 -332q134 -16 404 -16q44 390 52 432h188q13 0 48 -396q4 0 4 -8h144q196 5 196 20q-124 691 -224 1048q-36 165 -44 220q-101 -4 -424 -8zM672 1064q28 -47 68 -180q16 -61 16 -76l-8 -4h-160l-8 4q55 256 92 256z" />
<glyph unicode="b" horiz-adv-x="984" d="M356 1456h244q162 0 220 -64q152 -128 152 -384v-28q0 -181 -132 -256l-32 -40v-4q111 -60 168 -224q8 -32 8 -68v-8q0 -192 -140 -272q-89 -108 -260 -108q-486 0 -572 36q-4 138 -4 144q0 366 -8 1196l8 4h76v64l4 8q175 4 268 4zM116 1420v-4q8 -673 8 -1128 q4 -122 4 -156q0 -16 532 -28q187 0 264 132q28 86 28 152q0 133 -140 252q-42 32 -152 48q0 18 -4 24l160 40q124 50 124 252q0 304 -212 404q-15 16 -192 16q-40 0 -420 -4zM564 1164q76 -25 76 -100v-16q0 -98 -152 -136q-35 -4 -60 -4h-12q-8 0 -8 8v228q0 13 156 20z M440 1056v-116q84 0 84 36v16q-11 68 -56 68zM508 472q105 0 136 -56q8 -15 8 -32v-12q0 -76 -120 -104q-37 -12 -92 -12h-32q-8 0 -8 8v28q0 62 4 168q38 12 104 12zM436 364v-76q23 0 100 12v12q-11 52 -88 52h-12z" />
<glyph unicode="c" horiz-adv-x="1108" d="M692 1488h40q216 0 376 -196v-4q-31 -201 -164 -372l-20 12l-64 -84q-115 76 -200 76h-16q-111 0 -132 -112q-11 -13 -12 -76q0 -170 88 -224q60 -28 124 -28h8q92 0 196 56q72 -41 128 -228q28 -101 28 -180q-53 -16 -84 -20v-4l4 -48q-212 -56 -400 -56 q-379 0 -508 328q-84 203 -84 340v36q0 291 196 528q230 214 328 224q86 32 168 32zM116 772v-20q0 -199 136 -444q128 -200 392 -200h68q133 0 328 44q-5 118 -88 300l-36 44q-124 -52 -204 -52q-176 0 -228 156q-16 48 -16 108v36q0 188 200 272q32 8 64 12q88 0 204 -68 q114 157 136 328q-150 168 -364 168q-268 0 -452 -232q-140 -215 -140 -452z" />
<glyph unicode="d" horiz-adv-x="1120" d="M388 1436h40q376 0 472 -100q132 -93 196 -336q16 -46 24 -184q0 -368 -372 -652q-196 -164 -520 -164h-88q-132 0 -132 16q-8 341 -8 580q8 254 8 312v20q0 233 -8 416q6 4 84 12v56q0 19 304 24zM116 1388q0 -18 4 -24q4 -216 4 -324v-56q0 -64 -8 -324q0 -213 8 -548 q44 -8 136 -8h12q378 0 564 180q248 230 248 520v28q0 289 -204 480q-97 92 -464 92h-4q-153 0 -296 -16zM564 1076q113 0 160 -136q12 -57 12 -104q0 -169 -76 -284q-90 -80 -220 -80l-8 4q-4 296 -4 460v104q0 24 136 36zM464 972q0 -4 -4 -4q4 -175 4 -260v-200 q120 9 120 52q36 113 36 212q0 200 -156 200z" />
<glyph unicode="e" horiz-adv-x="1012" d="M92 1484q852 -33 852 -40q24 -331 28 -420q-8 -4 -12 -4q-16 0 -72 -4v-16l4 -48q-4 0 -4 -4q-297 -12 -368 -12v-12q0 -20 4 -60q289 -20 324 -28v-4q-7 -184 -20 -184h-40q-32 0 -32 -24v-36l-8 -12q-86 -4 -128 -4h-68q12 -108 20 -108q396 -36 440 -44v-4 q-20 -344 -32 -344h-68l-4 -28v-32q0 -6 -12 -12h-88q-150 0 -804 48l-4 8v1348q1 8 8 8h56l20 -4v68q1 8 8 8zM116 1452v-1300q630 -48 828 -48h12q16 158 16 288q-389 36 -436 44q-24 197 -32 232q4 0 4 4l296 8q4 14 4 128q-274 20 -316 28q-12 164 -12 196q4 0 4 4 l456 16l-4 8q0 39 -24 356q-721 32 -776 32z" />
<glyph unicode="f" horiz-adv-x="1048" d="M1044 1424l4 -8q0 -53 -12 -364l-8 -4h-72v-64q0 -8 -8 -8h-316l-40 4l-4 -8v-92q0 -21 -4 -68q53 0 364 -8q0 -4 4 -4q4 -145 4 -220v-44q0 -10 -84 -20l4 -28v-24q0 -11 -284 -52q-44 -7 -44 -24q-20 -308 -32 -308h-68l-4 -40v-20l-8 -12q-289 -8 -432 -8q-4 8 -4 12 q0 337 32 1220v76q27 8 84 8v60q0 14 360 28q78 12 568 20zM148 1352v-4l-32 -1124v-120h4q85 4 372 8q28 341 36 380q371 60 396 68q-4 101 -4 148v64q-53 0 -364 8l-4 8q0 64 8 292l8 4h128q110 0 308 -4q8 261 12 312q-499 -12 -868 -40z" />
<glyph unicode="g" horiz-adv-x="1232" d="M700 1508h24q229 0 392 -200q-68 -238 -184 -364q-13 8 -24 8q-2 -20 -60 -80q-117 68 -204 68q-104 0 -116 -72q-28 -41 -28 -116v-4q0 -158 124 -264q33 -24 72 -24q2 0 16 4v8q-112 27 -112 52q-4 101 -4 160q3 72 16 72h60q7 0 16 68l8 4h520q16 0 16 -176v-128 q0 -8 -8 -8h-8q-21 0 -68 4v-68q0 -8 -12 -8q-18 0 -88 4q-22 -136 -84 -208q-210 -198 -296 -220q-67 -20 -116 -20h-16q-220 0 -404 260q-132 238 -132 440q0 310 196 552q207 195 308 220q103 36 196 36zM116 764q0 -230 176 -480q156 -180 340 -180q162 0 328 184 q60 107 60 248v16q1 8 8 8q53 -4 168 -4q4 22 4 36v24q0 112 -8 176q-274 4 -428 4h-48l-4 -28v-16q0 -47 4 -148q112 -36 128 -44q-72 -132 -148 -132h-4q-156 0 -224 276v68q0 116 108 220q62 52 152 52q79 0 200 -56q91 125 136 264q12 44 12 48q-138 176 -368 176 q-285 0 -468 -256q-124 -221 -124 -456z" />
<glyph unicode="h" horiz-adv-x="1216" d="M1012 1468q204 -6 204 -16q-8 -192 -12 -492q4 -437 4 -852l-8 -4h-72v-64q0 -8 -8 -8q-32 0 -424 4l-4 8v4q0 241 -16 392h-72q8 -253 8 -364l-8 -4h-76q4 -55 4 -68l-8 -4q-428 8 -464 8q0 4 -4 4q-4 127 -4 180q0 715 -44 1100q-4 59 -8 80l8 4h80v20l-4 48q4 0 4 4 q139 4 200 4h272q19 0 32 -480v-52h80v4q-12 280 -12 356v88q0 6 12 12q21 0 68 4v56q0 18 272 28zM776 1420v-56q0 -63 12 -376v-92q0 -8 -8 -8q-75 0 -220 -4l-4 8v128q0 187 -20 396l-40 4h-48q-120 0 -328 -4q48 -442 48 -1088v-40q0 -43 4 -172q21 -4 24 -4 q174 0 384 -8l-12 440l8 4h204q24 0 28 -408h368q-4 667 -4 828q0 136 8 460q-86 4 -128 4h-52q-94 0 -224 -12z" />
<glyph unicode="i" horiz-adv-x="556" d="M96 1440h436q8 -1 8 -8v-80q0 -356 16 -932q0 -57 -16 -340l-12 -8h-68q0 -72 -12 -72h-416q-8 0 -8 8q0 669 -24 1080q0 38 4 276l8 4h76v64q1 8 8 8zM120 1408q-4 -218 -4 -256q24 -377 24 -1048h40q120 0 328 4q16 279 16 320q-16 502 -20 980h-384z" />
<glyph unicode="j" horiz-adv-x="1036" d="M840 1508q160 -7 160 -28q36 -507 36 -800q0 -292 -124 -420q-94 -102 -208 -184q-131 -76 -252 -76h-48q-288 0 -380 304q-24 115 -24 212q4 70 4 84q79 11 80 16q0 60 16 60q54 8 116 8h12q100 0 100 -20q87 -188 180 -188h12q32 30 40 252q-16 292 -24 672 q63 16 84 16v52q38 24 220 40zM652 1448q8 -321 24 -652q0 -356 -156 -356q-128 0 -220 208q-8 0 -88 4q-43 0 -92 -8q-4 -41 -4 -48q0 -492 392 -492h12q237 0 396 216q84 122 84 288v132q0 283 -32 720q-50 12 -136 16q-21 0 -180 -28z" />
<glyph unicode="k" horiz-adv-x="1248" d="M1232 1488l4 -8q0 -441 -212 -780v-4q158 -239 224 -588l-12 -8q-26 0 -80 -4q8 -33 8 -64l-8 -4l-404 -28q-56 256 -120 356q-41 67 -44 76q-11 0 -28 -260q-13 -96 -24 -96h-64q-5 -72 -16 -72h-24q-428 9 -428 48q0 102 4 160q-8 310 -8 576l12 580l8 4h4q21 0 68 4 q0 68 12 68l460 28q0 -4 4 -4l20 -592q65 63 96 212q24 199 24 272v8l-4 20q8 4 12 4q64 4 76 4v44l-4 20q0 6 444 28zM1192 1452q-47 0 -368 -20v-4q0 -184 -52 -380q-70 -160 -208 -228h-4q0 4 -4 4l-20 616l-8 -4q-31 0 -400 -24q-12 -510 -12 -568q0 -161 8 -580 q-4 -80 -4 -120q127 -36 396 -36l40 372q115 64 124 64h4q122 -179 180 -436l348 24q-36 169 -84 288q-48 117 -144 288v4q74 76 160 332q56 210 56 412z" />
<glyph unicode="l" horiz-adv-x="856" d="M92 1392h448l8 -4q4 -312 4 -488v-476h4q164 -8 192 -8h100q8 -1 8 -8q-4 -202 -4 -316v-12q0 -8 -8 -8h-72v-64q0 -8 -12 -8q-168 0 -724 16q-4 8 -4 12q0 363 -32 1288l8 4h76v64q1 8 8 8zM116 1356q0 -4 4 -12q0 -72 24 -912q4 0 4 -312h24l648 -16v280l-8 -4h-28 q-21 0 -260 12q-4 8 -4 12q0 289 -4 956h-40q-130 0 -360 -4z" />
<glyph unicode="m" horiz-adv-x="1372" d="M1140 1464q204 0 204 -16q0 -402 28 -1072v-72q-4 -150 -4 -184q-28 -8 -80 -12v-56q0 -17 -272 -28q-192 0 -192 16v284q-60 -74 -92 -100q0 8 -8 8q-46 -59 -72 -80l-56 72v-144q0 -8 -8 -8h-68q-8 -1 -8 -8q4 -34 4 -56q0 -8 -8 -8h-152q-320 9 -320 24 q0 678 -36 1272v72q32 8 84 8v60q0 12 236 20l232 -8q92 -317 152 -448h4q68 141 148 380q68 0 68 32q8 44 32 44q73 8 184 8zM728 872h-4q-24 26 -128 320l-68 224q-101 4 -148 4h-40q-108 0 -224 -8q32 -652 32 -928q4 -119 4 -364q221 -16 360 -16h52q-8 264 -8 468 q15 8 32 8q107 -269 152 -304q115 121 156 284q11 28 16 28h16q6 0 12 -12v-440q114 -8 164 -8q111 4 232 20v288q-24 593 -24 872v116q-124 8 -180 8q-172 -2 -172 -16q-78 -252 -232 -544z" />
<glyph unicode="n" horiz-adv-x="1096" d="M116 1436h224q10 -3 240 -344v248q1 8 8 8h76v64q1 8 8 8q258 4 416 4q8 -1 8 -8q-52 -800 -96 -1328l-12 -8h-68q0 -72 -12 -72q-191 4 -224 4q-156 228 -212 296v-228q0 -8 -8 -8h-72v-64q0 -8 -8 -8h-156q-228 0 -228 20q32 450 32 720v180q0 163 -4 440l8 4h76 q-4 47 -4 68zM144 1400q4 -204 4 -320v-292q0 -213 -28 -664q-4 -8 -4 -12q144 -8 324 -8v472q1 8 8 8q178 -238 336 -464q27 -4 44 -4h60q26 0 80 -4q92 1174 92 1276h-364v-520h-4l-364 532h-184z" />
<glyph unicode="o" horiz-adv-x="1432" d="M780 1460h20q433 0 584 -344q48 -124 48 -268v-32q0 -428 -308 -652q-182 -164 -416 -164h-52q-281 0 -516 240q-140 169 -140 368v4q0 476 288 672q179 176 492 176zM116 676q0 -327 372 -516q142 -56 272 -56h4q403 0 576 380q60 168 60 356q0 454 -408 564 q-98 24 -200 24q-511 0 -640 -444q-36 -132 -36 -308zM788 1028h8q235 0 292 -232q4 -34 4 -56v-16q0 -223 -244 -308q-34 -4 -56 -4q-140 0 -252 212q-16 58 -16 88v8q0 180 164 284q51 24 100 24zM556 716q0 -141 172 -256q49 -16 72 -16q124 0 160 116q16 45 16 96 q0 179 -144 244q-63 24 -124 24q-98 0 -120 -80q-32 -61 -32 -128z" />
<glyph unicode="p" d="M708 1452q173 0 244 -200q16 -51 20 -136q0 -247 -196 -384q-129 -119 -304 -180v-4l-12 -172q4 -129 4 -244v-40q0 -11 -80 -16v-56q-24 -20 -156 -20h-80q-104 0 -104 12q-28 257 -40 468q5 368 8 428q-4 42 -12 444q27 8 84 8v60q0 20 608 32h16zM116 1396 q0 -11 12 -404l-8 -432q12 -234 40 -452q86 -4 124 -4q148 3 148 16q-4 173 -4 248q13 264 28 264q217 46 396 212q84 111 84 256v40q0 193 -152 264q-26 12 -84 16q-206 0 -584 -24zM532 1148h32q100 0 100 -72q0 -87 -100 -124q-49 -20 -116 -20h-4q-13 0 -16 204 q34 12 104 12zM464 1044v-4q4 -54 4 -76q80 7 80 32v4q0 44 -68 44h-16z" />
<glyph unicode="q" horiz-adv-x="1448" d="M836 1464q281 0 504 -328q92 -167 92 -324v-16q0 -233 -152 -460l168 -248q-39 -71 -168 -172q-69 -72 -212 -116q-43 83 -132 240q-156 -52 -308 -52h-24q-262 0 -468 260q-136 202 -136 488q0 329 248 508q114 118 304 172q189 48 284 48zM116 800q0 -504 416 -680 q101 -28 172 -28q149 0 332 60l132 -240q171 66 240 176l-168 248q160 229 160 472q0 272 -248 496q-154 124 -312 124q-284 0 -524 -164q-200 -165 -200 -464zM816 1024q195 0 252 -184q16 -48 16 -108v-52q0 -32 -8 -72h-4l-144 140q-112 -52 -116 -52q88 -213 100 -252 q-50 -28 -120 -28h-12q-178 0 -252 220q-16 54 -16 108v8q0 164 200 252q27 12 104 20zM544 740q0 -157 136 -268q59 -20 80 -20v4q-68 172 -68 180v8q2 0 88 36v4l-8 28q147 72 168 72q0 -4 4 -4v8q-59 112 -116 112q-35 16 -92 16h-12q-180 0 -180 -176z" />
<glyph unicode="r" d="M560 1464h20q246 0 308 -104q84 -104 84 -288q0 -198 -176 -312q-23 -29 -80 -72q157 -105 200 -216q52 -115 52 -204q0 -35 -12 -184h-4q-31 0 -72 8q-4 -78 -12 -84q-197 21 -308 48v4q0 272 -72 320l-12 8l-4 -8q0 -34 -4 -108q8 -153 8 -168q-31 -12 -84 -24v-4 l4 -40q-80 -36 -160 -36q-192 16 -192 28q-8 335 -8 628v112q0 334 -36 596q34 7 88 12l-4 64h4q273 24 472 24zM120 1408q32 -243 32 -552v-108q0 -314 8 -624q100 -16 168 -16q50 0 116 20q0 4 -4 12q-4 102 -4 136q0 108 20 292q208 -96 208 -264q12 -130 16 -152 q63 -16 244 -32q8 65 12 152q0 105 -88 256q-119 126 -224 180v8q219 77 292 220q24 67 24 144q0 245 -172 332q-87 20 -208 20q-182 0 -440 -24zM572 1168h4q100 0 100 -84q0 -99 -120 -140q-50 -16 -108 -16q-7 0 -16 216q72 24 140 24zM472 1064q0 -4 -4 -4l8 -96 q80 0 80 32q4 6 4 24q0 44 -88 44z" />
<glyph unicode="s" horiz-adv-x="1168" d="M652 1540h24q210 0 416 -152l8 -12v-4q0 -185 -148 -336l-12 8q-3 0 -44 -56q0 -5 76 -28q196 -120 196 -340v-36q0 -258 -224 -416q-178 -168 -460 -168q-250 0 -484 144v4q0 120 60 268q32 55 68 84h4l12 -8h4q7 28 64 80q108 -95 308 -140q68 -8 92 -8h24q92 0 92 36 l4 24q-33 176 -132 176q-377 0 -428 88q-120 110 -120 236v48q0 160 220 328q195 180 380 180zM168 1100v-40q0 -136 144 -244q65 -52 388 -52q66 0 124 -112q24 -52 24 -96q0 -113 -132 -156q-40 -8 -92 -12q-198 0 -412 140q-65 -74 -84 -208l-12 -88q218 -124 444 -124 h16q364 0 520 280q40 104 40 208q0 256 -212 348l-388 48q-112 30 -112 88v16q0 65 108 112q38 8 60 8h20q157 0 336 -136q120 142 120 284q-195 144 -404 144q-236 0 -452 -264q-44 -83 -44 -144zM456 1084q0 -69 368 -92q-145 120 -308 120q-60 0 -60 -28z" />
<glyph unicode="t" horiz-adv-x="1220" d="M92 1484q94 0 1112 -20q0 -4 4 -4q12 -357 12 -428q-84 -10 -84 -12q4 -50 4 -60q-22 -8 -276 -16l20 -868l-8 -4h-8q-21 0 -68 4v-4q0 -13 4 -68l-8 -4q-340 15 -340 28l-76 908q-16 7 -376 32l-4 8v428q1 8 8 8h76v64q1 8 8 8zM116 1452v-380q338 -24 376 -32 q72 -839 80 -916q223 -16 280 -16v4q-4 40 -24 928q32 8 360 20q-4 57 -12 372q-942 16 -1060 20z" />
<glyph unicode="u" horiz-adv-x="1184" d="M784 1436h196q188 -11 188 -28q12 -135 16 -304q0 -781 -168 -936q-39 -26 -104 -88q-111 -80 -300 -80q-267 0 -460 148q-152 168 -152 612q0 171 12 572q84 13 84 20v48q0 16 152 20h28q90 0 180 -52v-4q-12 -121 -12 -232v-112q0 -548 212 -548h4q54 0 68 292 q-8 200 -36 596l8 4h80l-4 48v16q1 8 8 8zM812 1404v-4q32 -515 32 -564q0 -322 -136 -388q-28 -8 -48 -8h-12q-240 0 -240 644q4 154 12 268q-85 36 -160 36q-132 -3 -132 -16q-12 -360 -12 -560q0 -464 180 -596q184 -112 400 -112q303 0 368 208q84 203 84 836 q-5 240 -16 240q-105 16 -176 16h-144z" />
<glyph unicode="v" horiz-adv-x="1244" d="M848 1468h52q97 0 344 -52v-4q-124 -350 -260 -804q-129 -340 -208 -520q-58 0 -68 -40q0 -44 -96 -44q0 -4 -52 -4h-4q-132 0 -212 28q-249 489 -260 688q-36 203 -84 660q30 7 88 12q-4 40 -4 60q78 16 168 16q108 0 108 -32q28 -64 104 -408q40 -127 108 -280 q8 0 72 252q100 350 120 400h60q14 72 24 72zM868 1436q-124 -420 -236 -860h-8q-176 335 -176 400q-24 61 -104 412q-14 36 -28 36q-46 8 -72 8q-124 -6 -124 -16q68 -671 136 -864q92 -223 200 -428q120 -20 184 -20q120 0 120 28q200 472 304 856l136 404h-4 q-211 44 -328 44z" />
<glyph unicode="w" horiz-adv-x="1576" d="M1152 1436h56q51 0 368 -32v-4q0 -111 -208 -1304q-76 0 -76 -40t-52 -40q-69 -12 -128 -12h-28q-196 0 -196 28q-54 220 -124 352q-8 0 -8 20q-12 -11 -80 -248q-26 -84 -32 -84h-56q-18 -72 -28 -72q-97 0 -336 8q-36 206 -152 764q-72 485 -72 580l8 4h80q-4 47 -4 68 q4 0 4 4q127 4 188 4h96q144 0 144 -48q16 -221 48 -500h8q44 81 60 92h36q24 53 48 72q196 -2 196 -20q79 -124 84 -124h4v4q32 196 64 456h72q7 72 16 72zM1176 1404q-28 -221 -80 -572l-12 -100h-4l-200 276q-115 4 -152 8q-123 -192 -168 -296h-8v4q-68 544 -68 656 q-63 20 -120 20q-34 0 -244 -4v-4q0 -158 104 -736q108 -476 108 -544h4q215 -4 288 -8q128 434 172 520l8 4h4l132 -300q24 -70 64 -208q92 -12 180 -12q160 8 160 24q192 1138 192 1240q-255 32 -360 32z" />
<glyph unicode="x" horiz-adv-x="1432" d="M320 1472q200 0 200 -28l184 -316q18 49 132 272h48q29 72 40 72q317 -12 360 -40q13 0 76 -20v-12q-268 -413 -352 -608q205 -267 316 -480q108 -180 108 -188q-9 -4 -112 -16q12 -24 28 -48v-12q-135 -16 -436 -28q-103 163 -188 268q-8 28 -16 28q-84 -244 -92 -244 h-4l-48 4q-19 -76 -36 -76q-296 21 -444 36v4q176 415 320 640v4q-217 292 -404 700v4q108 4 108 12l-28 56q101 16 240 16zM136 1432l-4 -8q186 -379 372 -640q3 0 24 -32q-164 -250 -312 -616l8 -4q322 -20 376 -20q131 380 168 396h4q53 -131 144 -232l96 -152l368 24v4 q-204 364 -352 560q-56 63 -56 76q81 191 228 424q101 149 112 180h-4q-107 40 -300 40q0 3 -68 8q-144 -301 -196 -368q-24 -32 -28 -32h-8q0 21 -212 376q0 24 -176 24q-15 0 -184 -8z" />
<glyph unicode="y" horiz-adv-x="1352" d="M312 1472h124q84 0 84 -28q120 -241 180 -320h4q56 149 120 276h44q39 72 44 72h52q213 0 388 -64q-175 -259 -316 -516q-104 -150 -104 -180q-24 -169 -24 -636q-4 0 -4 -4q-40 4 -60 4h-16v-68l-4 -8q-47 4 -68 4h-292q-8 0 -8 8q-8 400 -8 552v56q0 15 -96 136 q-161 208 -352 604q8 8 104 28q-20 36 -20 48q140 36 228 36zM128 1408q181 -343 264 -468q171 -222 172 -232v-72q0 -158 8 -528h304v112q3 531 44 556q121 188 288 476q5 5 92 136v4q-160 48 -372 48q-56 -119 -132 -300q-49 -77 -72 -100q-121 147 -176 284 q-52 88 -60 112q-66 4 -100 4h-56q-92 0 -204 -28v-4z" />
<glyph unicode="z" horiz-adv-x="1176" d="M132 1384q906 -4 1032 -8l4 -8v-112q8 -68 8 -76v-20q0 -63 -64 -128q-60 -113 -264 -304q-206 -183 -280 -300q233 -24 320 -24h220q16 0 16 -180v-144q0 -8 -8 -8h-72v-64q0 -8 -8 -8q-595 4 -812 4q-40 0 -212 4l-4 8q-8 164 -8 176q0 157 36 176q124 177 400 440 q5 0 152 152q-145 4 -208 4h-28q-87 0 -300 -12q-24 128 -24 184q7 176 20 176h64q7 0 16 72h4zM156 1352q-8 -51 -12 -148q4 -72 20 -148l8 4q154 8 224 8h140q63 0 208 -4v-4q-444 -440 -444 -448q-172 -206 -172 -220q-8 -58 -12 -132q0 -20 8 -148q336 -4 540 -4h140 q103 0 288 -4v84q0 118 -8 184h-212q-85 0 -360 28v12q82 122 280 316q133 102 256 264q92 128 92 148q4 21 4 40q-8 46 -8 64v100z" />
<glyph unicode="&#x25fc;" horiz-adv-x="1470" d="M0 1470h1470v-1470h-1470v1470z" />
</font>
</defs>
</svg>
